<?xml version="1.0" encoding="UTF-8" standalone="no"?>
<svg
   xmlns:dc="http://purl.org/dc/elements/1.1/"
   xmlns:cc="http://creativecommons.org/ns#"
   xmlns:rdf="http://www.w3.org/1999/02/22-rdf-syntax-ns#"
   xmlns:svg="http://www.w3.org/2000/svg"
   xmlns="http://www.w3.org/2000/svg"
   viewBox="0 0 1001.25 556.79999"
   height="556.79999"
   width="1001.25"
   xml:space="preserve"
   version="1.1"
   id="svg2"><metadata
     id="metadata8"><rdf:RDF><cc:Work
         rdf:about=""><dc:format>image/svg+xml</dc:format><dc:type
           rdf:resource="http://purl.org/dc/dcmitype/StillImage" /></cc:Work></rdf:RDF></metadata><defs
     id="defs6" /><g
     transform="matrix(1.25,0,0,-1.25,0,556.8)"
     id="g10"><g
       transform="scale(0.1,0.1)"
       id="g12"><path
         id="path14"
         style="fill:#100f0d;fill-opacity:1;fill-rule:nonzero;stroke:none"
         d="m 5,5 8000,0 0,4444.43 -8000,0 L 5,5 Z" /><path
         id="path16"
         style="fill:none;stroke:#211c1d;stroke-width:10;stroke-linecap:butt;stroke-linejoin:miter;stroke-miterlimit:4;stroke-dasharray:none;stroke-opacity:1"
         d="m 5,5 8000,0 0,4444.43 -8000,0 L 5,5 Z" /><path
         id="path18"
         style="fill:#7c7d7e;fill-opacity:1;fill-rule:nonzero;stroke:none"
         d="m 2198.63,1870.92 -351.16,0 0,573.72 16.07,0 0,-557.68 335.09,0 0,-16.04" /><path
         id="path20"
         style="fill:#7c7d7e;fill-opacity:1;fill-rule:nonzero;stroke:none"
         d="m 2878.42,2444.64 0,-359.97 c 0,-77.16 -17.95,-134.21 -53.84,-171.17 -35.9,-36.97 -88.12,-55.45 -156.69,-55.45 -68.58,0 -120.81,18.48 -156.69,55.45 -35.9,36.96 -53.85,94.01 -53.85,171.17 l 0,359.97 16.08,0 0,-359.97 c 0,-69.12 15.79,-121.62 47.41,-157.52 31.61,-35.87 80.63,-53.86 147.05,-53.86 66.42,0 115.44,17.99 147.05,53.86 31.59,35.9 47.4,88.4 47.4,157.52 l 0,359.97 16.08,0" /><path
         id="path22"
         style="fill:#7c7d7e;fill-opacity:1;fill-rule:nonzero;stroke:none"
         d="m 3728.56,2444.64 0,-573.72 -16.04,0 0,553.65 -1.62,0 -243.47,-553.65 -17.68,0 -243.5,553.65 -1.59,0 0,-553.65 -16.08,0 0,573.72 26.53,0 242.65,-552.82 1.63,0 242.65,552.82 26.52,0" /><path
         id="path24"
         style="fill:#51c281;fill-opacity:1;fill-rule:nonzero;stroke:none"
         d="m 4038.76,1870.92 16.0391,0 0,573.723 -16.0391,0 0,-573.723 z" /><path
         id="path26"
         style="fill:#7c7d7e;fill-opacity:1;fill-rule:nonzero;stroke:none"
         d="m 4389.1,2444.64 392.15,-553.62 1.62,0 0,553.62 16.06,0 0,-573.72 -24.11,0 -392.15,553.65 -1.58,0 0,-553.65 -16.09,0 0,573.72 24.1,0" /><path
         id="path28"
         style="fill:#7c7d7e;fill-opacity:1;fill-rule:nonzero;stroke:none"
         d="m 6025.16,2156.15 c 21.41,0 41.86,2.67 61.45,8.05 19.54,5.37 36.81,13.92 51.85,25.72 14.98,11.81 27.03,26.64 36.15,44.61 9.11,17.93 13.66,39.49 13.66,64.7 -0.56,40.71 -12.86,72.45 -36.95,95.18 -24.15,22.79 -63.49,34.18 -118.17,34.18 l -222.55,0 0,-272.44 214.56,0 z m -230.66,-285.23 0,573.72 234.65,0 c 60,0 103.94,-11.89 131.79,-35.74 27.84,-23.85 42.32,-60.96 43.39,-111.29 1.06,-38.57 -9.12,-70.56 -30.53,-96.03 -21.42,-25.43 -52.26,-42.76 -92.4,-51.86 l 0,-1.58 c 24.1,-3.23 43.64,-8.99 58.63,-17.29 14.98,-8.32 26.52,-19.14 34.58,-32.52 8.05,-13.4 13.36,-29.2 16.04,-47.43 2.69,-18.24 4.06,-38.82 4.06,-61.87 0,-8.05 0.25,-18.07 0.75,-30.12 0.56,-12.05 1.37,-24 2.43,-35.74 1.07,-11.8 2.43,-22.54 4.01,-32.15 1.62,-9.67 3.73,-16.37 6.42,-20.1 l -17.67,0 c -2.68,5.86 -4.81,13.77 -6.43,23.7 -1.56,9.92 -2.78,20.5 -3.59,31.73 -0.81,11.23 -1.37,22.64 -1.62,34.18 -0.25,11.49 -0.41,21.82 -0.41,30.94 0,23.54 -1.72,44.59 -5.21,63.07 -3.5,18.47 -10.58,33.98 -21.31,46.58 -10.68,12.6 -25.98,22.23 -45.77,28.96 -19.85,6.68 -46.38,10.02 -79.59,10.02 l -216.12,0 0,-269.18 -16.1,0" /><path
         id="path30"
         style="fill:#7c7d7e;fill-opacity:1;fill-rule:nonzero;stroke:none"
         d="m 5091.49,1870.92 0,359.97 c 0,77.15 17.92,134.2 53.82,171.17 35.89,36.96 88.14,55.45 156.69,55.45 68.6,0 120.85,-18.49 156.69,-55.45 35.9,-36.97 53.87,-94.02 53.87,-171.17 l 0,-359.97 -16.1,0 0,359.97 c 0,69.11 -15.8,121.61 -47.39,157.5 -31.59,35.9 -80.65,53.87 -147.07,53.87 -66.42,0 -115.43,-17.97 -147.02,-53.87 -31.59,-35.89 -47.44,-88.39 -47.44,-157.5 l 0,-359.97 -16.05,0" /><path
         id="path32"
         style="fill:#7c7d7e;fill-opacity:1;fill-rule:nonzero;stroke:none"
         d="m 5098.79,2139.69 405.691,0 0,16.0469 -405.691,0 0,-16.0469 z" /><path
         id="path34"
         style="fill:#c71d2b;fill-opacity:1;fill-rule:nonzero;stroke:none"
         d="m 3712.52,1870.92 16.0391,0 0,573.723 -16.0391,0 0,-573.723 z" /><path
         id="path36"
         style="fill:#324ea9;fill-opacity:1;fill-rule:nonzero;stroke:none"
         d="m 4365,1870.92 16.0391,0 0,573.723 -16.0391,0 0,-573.723 z" /></g></g></svg>