<?xml version="1.0" encoding="utf-8"?>
<!-- Generator: Adobe Illustrator 19.2.0, SVG Export Plug-In . SVG Version: 6.00 Build 0)  -->
<svg version="1.1"
	 id="svg2" xmlns:cc="http://creativecommons.org/ns#" xmlns:dc="http://purl.org/dc/elements/1.1/" xmlns:rdf="http://www.w3.org/1999/02/22-rdf-syntax-ns#" xmlns:svg="http://www.w3.org/2000/svg"
	 xmlns="http://www.w3.org/2000/svg" xmlns:xlink="http://www.w3.org/1999/xlink" x="0px" y="0px" viewBox="0 0 616.7 129.4"
	 style="enable-background:new 0 0 616.7 129.4;" xml:space="preserve">
<style type="text/css">
	.st0{fill:#100F0D;}
	.st1{fill:#7C7D7E;}
	.st2{fill:#51C281;}
	.st3{fill:#C71D2B;}
	.st4{fill:#324EA9;}
</style>
<path id="path14" class="st0" d="M0,129.4h616.7V0H0V129.4z"/>
<path id="path18" class="st1" d="M81.8,99.9H37.9V28.2h2v69.7h41.9V99.9"/>
<path id="path20" class="st1" d="M166.8,28.2v45c0,9.6-2.2,16.8-6.7,21.4s-11,6.9-19.6,6.9s-15.1-2.3-19.6-6.9s-6.7-11.8-6.7-21.4
	v-45h2v45c0,8.6,2,15.2,5.9,19.7c4,4.5,10.1,6.7,18.4,6.7s14.4-2.2,18.4-6.7c3.9-4.5,5.9-11.1,5.9-19.7v-45L166.8,28.2"/>
<path id="path22" class="st1" d="M273.1,28.2v71.7h-2V30.7h-0.2l-30.4,69.2h-2.2l-30.4-69.2h-0.2v69.2h-2V28.2h3.3l30.3,69.1h0.2
	l30.3-69.1L273.1,28.2"/>
<path id="path24" class="st2" d="M311.8,99.9h2V28.2h-2V99.9z"/>
<path id="path26" class="st1" d="M355.6,28.2l49,69.2h0.2V28.2h2v71.7h-3l-49-69.2h-0.2v69.2h-2V28.2H355.6"/>
<path id="path28" class="st1" d="M560.1,64.3c2.7,0,5.2-0.3,7.7-1c2.4-0.7,4.6-1.7,6.5-3.2s3.4-3.3,4.5-5.6c1.1-2.2,1.7-4.9,1.7-8.1
	c-0.1-5.1-1.6-9.1-4.6-11.9c-3-2.8-7.9-4.3-14.8-4.3h-27.8v34.1L560.1,64.3L560.1,64.3z M531.3,99.9V28.2h29.3
	c7.5,0,13,1.5,16.5,4.5c3.5,3,5.3,7.6,5.4,13.9c0.1,4.8-1.1,8.8-3.8,12s-6.5,5.3-11.5,6.5v0.2c3,0.4,5.5,1.1,7.3,2.2
	c1.9,1,3.3,2.4,4.3,4.1s1.7,3.6,2,5.9s0.5,4.9,0.5,7.7c0,1,0,2.3,0.1,3.8s0.2,3,0.3,4.5s0.3,2.8,0.5,4s0.5,2,0.8,2.5h-2.2
	c-0.3-0.7-0.6-1.7-0.8-3c-0.2-1.2-0.3-2.6-0.4-4s-0.2-2.8-0.2-4.3c0-1.4-0.1-2.7-0.1-3.9c0-2.9-0.2-5.6-0.7-7.9
	c-0.4-2.3-1.3-4.2-2.7-5.8c-1.3-1.6-3.2-2.8-5.7-3.6c-2.5-0.8-5.8-1.3-9.9-1.3h-27v33.6L531.3,99.9"/>
<path id="path30" class="st1" d="M443.4,99.9v-45c0-9.6,2.2-16.8,6.7-21.4s11-6.9,19.6-6.9s15.1,2.3,19.6,6.9
	c4.5,4.6,6.7,11.8,6.7,21.4v45h-2v-45c0-8.6-2-15.2-5.9-19.7s-10.1-6.7-18.4-6.7s-14.4,2.2-18.4,6.7c-3.9,4.5-5.9,11-5.9,19.7v45
	H443.4"/>
<path id="path32" class="st1" d="M444.3,66.3H495v-2h-50.7V66.3z"/>
<path id="path34" class="st3" d="M271.1,99.9h2V28.2h-2V99.9z"/>
<path id="path36" class="st4" d="M352.6,99.9h2V28.2h-2V99.9z"/>
</svg>
