<?xml version="1.0" encoding="utf-8"?>
<!-- Generator: Adobe Illustrator 19.2.0, SVG Export Plug-In . SVG Version: 6.00 Build 0)  -->
<svg version="1.1"
	 id="svg2" xmlns:cc="http://creativecommons.org/ns#" xmlns:dc="http://purl.org/dc/elements/1.1/" xmlns:rdf="http://www.w3.org/1999/02/22-rdf-syntax-ns#" xmlns:svg="http://www.w3.org/2000/svg"
	 xmlns="http://www.w3.org/2000/svg" xmlns:xlink="http://www.w3.org/1999/xlink" x="0px" y="0px" viewBox="0 0 1001.3 556.8"
	 style="enable-background:new 0 0 1001.3 556.8;" xml:space="preserve">
<style type="text/css">
	.st0{fill:#100F0D;}
	.st1{fill:#7C7D7E;}
	.st2{fill:#51C281;}
	.st3{fill:#C71D2B;}
	.st4{fill:#324EA9;}
</style>
<g id="g12" transform="scale(0.1,0.1)">
	<path id="path14" class="st0" d="M-123.8,5750.4h10194.2V-76.7H-123.8V5750.4z"/>
	<path id="path18" class="st1" d="M2748.3,3229.3h-438.9v-717.2h20.1v697.1h418.9V3229.3"/>
	<path id="path20" class="st1" d="M3598,2512.2v450c0,96.5-22.4,167.8-67.3,214c-44.9,46.2-110.2,69.3-195.9,69.3
		c-85.7,0-151-23.1-195.9-69.3c-44.9-46.2-67.3-117.5-67.3-214v-450h20.1v450c0,86.4,19.7,152,59.3,196.9
		c39.5,44.8,100.8,67.3,183.8,67.3c83,0,144.3-22.5,183.8-67.3c39.5-44.9,59.2-110.5,59.2-196.9v-450H3598"/>
	<path id="path22" class="st1" d="M4660.7,2512.2v717.1h-20.1v-692.1h-2l-304.3,692.1h-22.1l-304.4-692.1h-2v692.1h-20.1v-717.1
		h33.2l303.3,691h2l303.3-691L4660.7,2512.2"/>
	<path id="path24" class="st2" d="M5048.5,3229.3h20v-717.2h-20V3229.3z"/>
	<path id="path26" class="st1" d="M5486.4,2512.2l490.2,692h2v-692h20.1v717.1h-30.1l-490.2-692.1h-2v692.1h-20.1v-717.1
		L5486.4,2512.2"/>
	<path id="path28" class="st1" d="M7531.5,2872.8c26.8,0,52.3-3.3,76.8-10.1c24.4-6.7,46-17.4,64.8-32.2
		c18.7-14.8,33.8-33.3,45.2-55.8c11.4-22.4,17.1-49.4,17.1-80.9c-0.7-50.9-16.1-90.6-46.2-119c-30.2-28.5-79.4-42.7-147.7-42.7
		h-278.2v340.6H7531.5L7531.5,2872.8z M7243.1,3229.3v-717.1h293.3c75,0,129.9,14.9,164.7,44.7c34.8,29.8,52.9,76.2,54.2,139.1
		c1.3,48.2-11.4,88.2-38.2,120c-26.8,31.8-65.3,53.4-115.5,64.8v2c30.1,4,54.6,11.2,73.3,21.6c18.7,10.4,33.1,23.9,43.2,40.7
		c10.1,16.7,16.7,36.5,20,59.3c3.4,22.8,5.1,48.5,5.1,77.3c0,10.1,0.3,22.6,0.9,37.7c0.7,15.1,1.7,30,3,44.7c1.3,14.8,3,28.2,5,40.2
		c2,12.1,4.7,20.5,8,25.1h-22.1c-3.4-7.3-6-17.2-8-29.6c-2-12.4-3.5-25.6-4.5-39.7c-1-14-1.7-28.3-2-42.7
		c-0.3-14.4-0.5-27.3-0.5-38.7c0-29.4-2.1-55.7-6.5-78.8c-4.4-23.1-13.2-42.5-26.6-58.2c-13.4-15.8-32.5-27.8-57.2-36.2
		c-24.8-8.3-58-12.5-99.5-12.5h-270.2v336.5L7243.1,3229.3"/>
	<path id="path30" class="st1" d="M6364.4,3229.3v-450c0-96.4,22.4-167.8,67.3-214c44.9-46.2,110.2-69.3,195.9-69.3
		c85.8,0,151.1,23.1,195.9,69.3c44.9,46.2,67.3,117.5,67.3,214v450h-20.1v-450c0-86.4-19.8-152-59.2-196.9
		c-39.5-44.9-100.8-67.3-183.8-67.3s-144.3,22.5-183.8,67.3c-39.5,44.9-59.3,110.5-59.3,196.9v450L6364.4,3229.3"/>
	<path id="path32" class="st1" d="M6373.5,2893.4h507.1v-20.1h-507.1V2893.4z"/>
	<path id="path34" class="st3" d="M4640.6,3229.3h20v-717.2h-20V3229.3z"/>
	<path id="path36" class="st4" d="M5456.3,3229.3h20v-717.2h-20V3229.3z"/>
</g>
</svg>
